<?xml version="1.0" encoding="UTF-8"?>
<svg width="35px" height="30px" viewBox="0 0 35 30" version="1.1" xmlns="http://www.w3.org/2000/svg" xmlns:xlink="http://www.w3.org/1999/xlink">
    <title>upload</title>
    <g id="Mass-Upload-page" stroke="none" stroke-width="1" fill="none" fill-rule="evenodd">
        <g id="Empty-massupload" transform="translate(-269.000000, -15.000000)" fill="#4D4D4D" fill-rule="nonzero">
            <g id="upload" transform="translate(269.000000, 15.000000)">
                <path d="M28.5137214,10.5183368 C28.5253638,10.3209979 28.5317672,10.1207484 28.5317672,9.91351351 C28.538316,5.55350312 25.6905821,1.70284823 21.5198337,0.432224532 C16.2916632,-1.16060291 10.7620998,1.78638254 9.16927235,7.01455301 C9.02199584,7.00698545 8.87995842,7.0029106 8.73966736,7.0029106 C3.91723493,7.0029106 0.00785862786,10.9122869 0.00785862786,15.7347193 C0.00785862786,20.5571518 3.91723493,24.4665282 8.73966736,24.4665282 L13.9851559,24.4665282 C14.306632,24.4665282 14.5672765,24.2058836 14.5672765,23.8844075 C14.5672765,23.5629314 14.306632,23.3022869 13.9851559,23.3022869 L8.73966736,23.3022869 C4.56018711,23.3022869 1.17209979,19.9141996 1.17209979,15.7347193 C1.17209979,11.5552391 4.56018711,8.16715177 8.73966736,8.16715177 C9.00802495,8.16787942 9.27616424,8.1825052 9.54299376,8.21081081 C9.8289605,8.23475052 10.0912058,8.05072765 10.1658628,7.77363825 C11.1409875,3.88267152 14.6416424,1.15660083 18.6529626,1.16453222 C23.475395,1.17399168 27.3770582,5.09108108 27.367526,9.91351351 C27.3690541,10.2766112 27.3454782,10.6393451 27.2970894,10.9991684 C27.2935239,11.0252183 27.2917775,11.0515593 27.2917775,11.0778274 C27.2918503,11.3993035 27.5524948,11.6598753 27.8739709,11.6598753 L27.9496466,11.6598753 C31.1646258,11.6598753 33.7708524,14.2661019 33.7708524,17.4810811 C33.7708524,20.6960603 31.1646258,23.3022869 27.9496466,23.3022869 L21.0032017,23.3022869 C20.6817256,23.3022869 20.4210811,23.5629314 20.4210811,23.8844075 C20.4210811,24.2058836 20.6817256,24.4665282 21.0032017,24.4665282 L27.9496466,24.4665282 C31.5899376,24.4672557 34.6205301,21.6722765 34.9137734,18.0437734 C35.224553,14.1984304 32.3591372,10.8291164 28.5137214,10.5183368 Z" id="Path"></path>
                <polygon id="Path" points="24.4691476 17.8338462 17.4714761 10.8367568 10.4738046 17.8338462 11.2975052 18.6575468 16.8893555 13.0651143 16.8893555 29.9446985 18.0535967 29.9446985 18.0535967 13.0651143 23.645447 18.6575468"></polygon>
            </g>
        </g>
    </g>
</svg>