<?xml version="1.0" encoding="iso-8859-1"?>
<!-- Generator: Adobe Illustrator 19.0.0, SVG Export Plug-In . SVG Version: 6.00 Build 0)  -->
<svg version="1.1" id="Layer_1" xmlns="http://www.w3.org/2000/svg" xmlns:xlink="http://www.w3.org/1999/xlink" x="0px" y="0px"
	 viewBox="0 0 512.016 512.016" style="enable-background:new 0 0 512.016 512.016;" xml:space="preserve">
<circle cx="377.128" cy="450.56" r="61.456"/>
<circle style="fill:#999999;" cx="377.128" cy="450.56" r="29.856"/>
<polygon points="145.544,151.36 105.184,31.92 0.68,31.92 0.68,0 128.096,0 175.784,141.136 "/>
<circle cx="191.752" cy="450.56" r="61.456"/>
<polygon style="fill:#FFFFFF;" points="147.824,353.584 78.992,132.552 499.992,132.552 421.216,353.584 "/>
<path style="fill:#E21B1B;" d="M488.648,140.56L415.576,345.6H153.704l-63.84-205.04L488.648,140.56 M511.336,124.56H68.128
	l73.808,237.04h284.92L511.336,124.56z"/>
<circle style="fill:#999999;" cx="191.752" cy="450.56" r="29.856"/>
<circle style="fill:#E21B1B;" cx="315.664" cy="151.36" r="108"/>
<g transform="matrix(-0.7071 0.7071 -0.7071 -0.7071 80.74 4.399)">
	<rect x="-72.198" y="-319.562" style="fill:#FFFFFF;" width="20" height="98.992"/>
	<rect x="-111.718" y="-280.066" style="fill:#FFFFFF;" width="98.992" height="20"/>
</g>
<g>
</g>
<g>
</g>
<g>
</g>
<g>
</g>
<g>
</g>
<g>
</g>
<g>
</g>
<g>
</g>
<g>
</g>
<g>
</g>
<g>
</g>
<g>
</g>
<g>
</g>
<g>
</g>
<g>
</g>
</svg>
